name rise44.9368peak50.754fall52.0217.mot
datacolumns 19
datarows 23
range 17.53327000000000 17.56993500000000
endheader
time	ground_force1_vx	ground_force1_vy	ground_force1_vz	ground_force1_px	ground_force1_py	ground_force1_pz	ground_force2_vx	ground_force2_vy	ground_force2_vz	ground_force2_px	ground_force2_py	ground_force2_pz	ground_torque1_x	ground_torque1_y	ground_torque1_z	ground_torque2_x	ground_torque2_y	ground_torque2_z	
17.53327000000000	-56.96511900000000	805.82966199999998	67.99125200000000	0.10385200000000	0.00000000000000	0.16127800000000	-1.94953000000000	16.61014900000000	1.99661000000000	0.00000000000000	0.00000000000000	0.00000000000000	0.00000000000000	33.33765800000000	0.00000000000000	0.00000000000000	0.76413700000000	0.00000000000000	
17.53493700000000	-57.23016000000000	804.50752299999999	67.89101300000000	0.10311400000000	0.00000000000000	0.16113500000000	-2.38660400000000	22.28447200000000	2.53406200000000	0.00000000000000	0.00000000000000	0.00000000000000	0.00000000000000	33.24456800000000	0.00000000000000	0.00000000000000	0.97704900000000	0.00000000000000	
17.53660400000000	-57.49716400000000	803.04293099999995	67.76474899999999	0.10239400000000	0.00000000000000	0.16098700000000	-2.80189400000000	28.49989200000000	3.08292300000000	0.31993800000000	0.00000000000000	-0.05637800000000	0.00000000000000	33.14849800000000	0.00000000000000	0.00000000000000	2.02567200000000	0.00000000000000	
17.53827300000000	-57.76674700000000	801.43381199999999	67.61175500000000	0.10169200000000	0.00000000000000	0.16083400000000	-3.17265900000000	35.13636500000000	3.62342200000000	0.32748400000000	0.00000000000000	-0.05663900000000	0.00000000000000	33.04971300000000	0.00000000000000	0.00000000000000	2.42463400000000	0.00000000000000	
17.53993700000000	-58.03950200000000	799.67822400000000	67.43136800000001	0.10101000000000	0.00000000000000	0.16067600000000	-3.47716800000000	42.06551700000000	4.13605800000000	0.33437200000000	0.00000000000000	-0.05686100000000	0.00000000000000	32.94847100000000	0.00000000000000	0.00000000000000	2.81649500000000	0.00000000000000	
17.54160100000000	-58.31599300000000	797.77435800000001	67.22296500000000	0.10034600000000	0.00000000000000	0.16051300000000	-3.69614800000000	49.16132300000000	4.60300300000000	0.34069500000000	0.00000000000000	-0.05705200000000	0.00000000000000	32.84502100000000	0.00000000000000	0.00000000000000	3.18868300000000	0.00000000000000	
17.54328400000000	-58.59674800000000	795.72053800000003	66.98597200000000	0.09970200000000	0.00000000000000	0.16034400000000	-3.81394000000000	56.30968800000000	5.00927200000000	0.34652800000000	0.00000000000000	-0.05721800000000	0.00000000000000	32.73959800000000	0.00000000000000	0.00000000000000	3.53019400000000	0.00000000000000	
17.54494100000000	-58.88225700000000	793.51521700000001	66.71986000000000	0.09907800000000	0.00000000000000	0.16017000000000	-3.81922900000000	63.41588400000000	5.34351000000000	0.35193100000000	0.00000000000000	-0.05736300000000	0.00000000000000	32.63242800000000	0.00000000000000	0.00000000000000	3.83225200000000	0.00000000000000	
17.54660800000000	-59.17296700000000	791.15697699999998	66.42415400000000	0.09847300000000	0.00000000000000	0.15999000000000	-3.70533200000000	70.40934300000001	5.59839400000000	0.35695300000000	0.00000000000000	-0.05749200000000	0.00000000000000	32.52371800000000	0.00000000000000	0.00000000000000	4.08868800000000	0.00000000000000	
17.54828500000000	-59.46928000000000	788.64452900000003	66.09842800000000	0.09788800000000	0.00000000000000	0.15980500000000	-3.47006800000000	77.24571700000000	5.77063600000000	0.36163400000000	0.00000000000000	-0.05760900000000	0.00000000000000	32.41366300000000	0.00000000000000	0.00000000000000	4.29605500000000	0.00000000000000	
17.54994200000000	-59.77154600000000	785.97670900000003	65.74231700000000	0.09732300000000	0.00000000000000	0.15961400000000	-3.11529300000000	83.90643600000000	5.86065800000000	0.36600600000000	0.00000000000000	-0.05771500000000	0.00000000000000	32.30243800000000	0.00000000000000	0.00000000000000	4.45350300000000	0.00000000000000	
17.55160400000000	-60.08005700000000	783.15247499999998	65.35551100000001	0.09677800000000	0.00000000000000	0.15941800000000	-2.64618300000000	90.39621900000000	5.87201900000000	0.37009700000000	0.00000000000000	-0.05781300000000	0.00000000000000	32.19020100000000	0.00000000000000	0.00000000000000	4.56245700000000	0.00000000000000	
17.55326800000000	-60.39504900000000	780.17090800000005	64.93776000000000	0.09625100000000	0.00000000000000	0.15921500000000	-2.07037500000000	96.73909900000000	5.81068600000000	0.37393000000000	0.00000000000000	-0.05790400000000	0.00000000000000	32.07708800000000	0.00000000000000	0.00000000000000	4.62616000000000	0.00000000000000	
17.55494100000000	-60.71669300000000	777.03120600000000	64.48887800000000	0.09574400000000	0.00000000000000	0.15900700000000	-1.39705900000000	102.97355000000000	5.68422900000000	0.37752500000000	0.00000000000000	-0.05799200000000	0.00000000000000	31.96321900000000	0.00000000000000	0.00000000000000	4.64914900000000	0.00000000000000	
17.55660000000000	-61.04509300000000	773.73267999999996	64.00874300000000	0.09525500000000	0.00000000000000	0.15879400000000	-0.63610600000000	109.14727600000001	5.50103200000000	0.38090000000000	0.00000000000000	-0.05807500000000	0.00000000000000	31.84868600000000	0.00000000000000	0.00000000000000	4.63670200000000	0.00000000000000	
17.55826700000000	-61.38028200000000	770.27475700000002	63.49729600000000	0.09478400000000	0.00000000000000	0.15857400000000	0.20270300000000	115.31213700000001	5.26956400000000	0.38406800000000	0.00000000000000	-0.05815600000000	0.00000000000000	31.73356500000000	0.00000000000000	0.00000000000000	4.59433500000000	0.00000000000000	
17.55993300000000	-61.72221900000000	766.65696900000000	62.95454700000000	0.09433000000000	0.00000000000000	0.15834900000000	1.11030600000000	121.51961000000000	4.99778200000000	0.38704200000000	0.00000000000000	-0.05823600000000	0.00000000000000	31.61790300000000	0.00000000000000	0.00000000000000	4.52734800000000	0.00000000000000	
17.56160500000000	-62.07078400000000	762.87895600000002	62.38057600000000	0.09389300000000	0.00000000000000	0.15811900000000	2.07882100000000	127.81702500000000	4.69266100000000	0.38983400000000	0.00000000000000	-0.05831500000000	0.00000000000000	31.50172700000000	0.00000000000000	0.00000000000000	4.44047700000000	0.00000000000000	
17.56326900000000	-62.42577800000000	758.94046100000003	61.77552800000000	0.09347300000000	0.00000000000000	0.15788200000000	3.10182300000000	134.24476100000001	4.35989900000000	0.39245300000000	0.00000000000000	-0.05839400000000	0.00000000000000	31.38503900000000	0.00000000000000	0.00000000000000	4.33764600000000	0.00000000000000	
17.56493700000000	-62.78691800000000	754.84132199999999	61.13962100000000	0.09306700000000	0.00000000000000	0.15764100000000	4.17446500000000	140.83441400000001	4.00374900000000	0.39490800000000	0.00000000000000	-0.05847300000000	0.00000000000000	31.26781400000000	0.00000000000000	0.00000000000000	4.22182400000000	0.00000000000000	
17.56660400000000	-63.15383500000000	750.58147699999995	60.47314400000000	0.09267600000000	0.00000000000000	0.15739300000000	5.29345100000000	147.60792599999999	3.62701400000000	0.39720700000000	0.00000000000000	-0.05855400000000	0.00000000000000	31.15000700000000	0.00000000000000	0.00000000000000	4.09498500000000	0.00000000000000	
17.56826900000000	-63.52607100000000	746.16095399999995	59.77645400000000	0.09229800000000	0.00000000000000	0.15714000000000	6.45688500000000	154.57755599999999	3.23112800000000	0.39935700000000	0.00000000000000	-0.05863500000000	0.00000000000000	31.03154300000000	0.00000000000000	0.00000000000000	3.95814500000000	0.00000000000000	
17.56993500000000	-63.90308100000000	741.57987200000002	59.04998300000000	0.09193300000000	0.00000000000000	0.15688200000000	7.66404400000000	161.74654000000001	2.81634800000000	0.40136400000000	0.00000000000000	-0.05871800000000	0.00000000000000	30.91232600000000	0.00000000000000	0.00000000000000	3.81147600000000	0.00000000000000	
